<svg width="85" height="92" viewBox="0 0 85 92" fill="none" xmlns="http://www.w3.org/2000/svg">
<mask id="mask0_12_99" style="mask-type:luminance" maskUnits="userSpaceOnUse" x="0" y="0" width="85" height="92">
<path d="M84.3343 6.0037L1.413 0L0 85.0829L82.9214 91.0865L84.3343 6.0037Z" fill="white"/>
</mask>
<g mask="url(#mask0_12_99)">
<path d="M16.5278 63.0662L16.1509 85.7604L38.2684 87.3616L38.2704 87.2482C33.1862 86.3537 28.4671 83.6875 24.9174 79.704C21.3676 75.7209 19.2069 70.6666 18.8035 65.4033C18.7605 64.8075 18.5033 64.2376 18.0825 63.8052C17.6616 63.3731 17.1072 63.1098 16.5278 63.0662Z" fill="#ABDEED"/>
<path d="M67.5971 28.1348L67.974 5.44049L45.8565 3.83911L45.8545 3.95268C50.9384 4.84712 55.6573 7.51295 59.207 11.4959C62.7566 15.4789 64.9175 20.5324 65.3213 25.7955C65.3639 26.3918 65.6208 26.9621 66.0418 27.3949C66.4627 27.8276 67.0173 28.0912 67.5971 28.1348Z" fill="#ABDEED"/>
<path d="M61.7897 47.0279C57.2701 40.7453 50.2139 36.4194 42.2247 35.841C33.5525 35.2131 26.641 27.4892 26.7887 18.591C26.9335 9.86993 33.8043 3.25442 42.2424 3.58638C28.5487 2.87434 17.3503 13.5482 17.116 27.6608C17.0101 33.5151 18.8511 39.3383 22.3357 44.1712C26.8552 50.4538 33.9116 54.7796 41.9006 55.3582C50.573 55.986 57.4845 63.7096 57.3366 72.6082C57.1914 81.3525 50.2833 87.9798 41.8147 87.6098C55.5384 88.3602 66.7747 77.6722 67.0093 63.5377C67.1152 57.6837 65.2741 51.8606 61.7897 47.0279Z" fill="#ABDEED"/>
</g>
</svg>
