<svg width="86" height="93" viewBox="0 0 86 93" fill="none" xmlns="http://www.w3.org/2000/svg">
<g clip-path="url(#clip0_9_5)">
<path d="M34.6204 0.895412L33.3085 91.1823L16.4003 90.8663L16.4015 90.7807C18.1596 90.5324 19.7757 89.6083 20.9553 88.1769C22.1348 86.7456 22.7992 84.9023 22.8273 82.9831L23.9066 8.69849C23.9343 6.77928 23.3238 4.91215 22.1865 3.43749C21.0492 1.96283 19.4608 0.978836 17.7109 0.664895L17.7122 0.579346L34.6204 0.895412Z" fill="#052E38"/>
<path d="M67.8826 66.8924L67.73 91.2949L45.1837 91.1539L45.1845 91.032C50.3795 90.4989 55.2448 88.033 58.9515 84.0543C62.6582 80.0756 64.977 74.8303 65.5127 69.2121C65.57 68.5753 65.8448 67.9842 66.2834 67.5548C66.722 67.1254 67.2928 66.8885 67.8839 66.8906L67.8826 66.8924Z" fill="#052E38"/>
</g>
<defs>
<clipPath id="clip0_9_5">
<rect width="85" height="92" fill="white" transform="translate(0.575684) rotate(0.358458)"/>
</clipPath>
</defs>
</svg>
