<svg width="85" height="92" viewBox="0 0 85 92" fill="none" xmlns="http://www.w3.org/2000/svg">
<path d="M63.5108 78.3653C64.1593 80.5093 64.6523 82.7017 65.1258 84.8973C65.4666 86.4663 66.235 87.8882 67.3311 88.9788C68.4272 90.0695 69.8008 90.7793 71.2738 91.0153V91.1013H47.9413V91.0153C48.0535 90.9978 48.1649 90.9771 48.275 90.9541C52.4893 90.0713 54.9534 85.2694 53.6138 80.8557L34.5101 17.9006C33.3422 14.0536 32.3732 10.1422 31.3578 6.24461C30.9672 4.7532 30.187 3.4156 29.111 2.3925C28.035 1.36939 26.709 0.7043 25.2922 0.477133V0.391113H39.9305L63.5108 78.3653Z" fill="#FFF0BA"/>
<path d="M13.515 31.0371V60.4569C14.5966 60.4569 15.5329 59.6045 15.68 58.4444C16.1293 54.9249 17.7402 51.7008 20.2152 49.3667C22.6902 47.0331 25.8619 45.7478 29.1444 45.7484C25.8619 45.7489 22.6902 44.4636 20.2152 42.1299C17.7402 39.7961 16.1293 36.5717 15.68 33.0524C15.5329 31.8923 14.5966 31.0399 13.515 31.0399V31.0371Z" fill="#FFF0BA"/>
</svg>
