<svg id="Calque_1" data-name="Calque 1" xmlns="http://www.w3.org/2000/svg" viewBox="0 0 760 688"><path d="M240.24,513.91c-.64.12-1.28.23-1.92.32v.46H372.13v-.46a42.64,42.64,0,0,1-35.26-32.42c-2.72-11.64-5.54-23.26-9.26-34.62L192.36,34h-84v.45A42.65,42.65,0,0,1,143.19,65c5.82,20.65,11.38,41.38,18.08,61.76L270.86,460.4C278.54,483.79,264.41,509.23,240.24,513.91Z"/><path d="M500.75,34H403.31v.45A42.62,42.62,0,0,1,439.69,76.6V472.09a42.6,42.6,0,0,1-36.38,42.14v.46h97.44Z"/><path d="M618.25,341.63a12.47,12.47,0,0,0,12.42,10.66h0V196.39h0a12.48,12.48,0,0,0-12.42,10.67A77.93,77.93,0,0,1,541,274.34a78,78,0,0,1,77.22,67.29Z"/><path d="M53.27,207.06a12.49,12.49,0,0,0-12.42-10.67v155.9a12.48,12.48,0,0,0,12.42-10.66,78,78,0,0,1,77.22-67.29,77.93,77.93,0,0,1-77.22-67.28Z"/><path d="M696.34,397.21A129.95,129.95,0,0,1,580,514v.65H709.92V384.77A13.66,13.66,0,0,0,696.34,397.21Z"/><path d="M580,34v.65A129.95,129.95,0,0,1,696.34,151.48a13.67,13.67,0,0,0,13.58,12.44V34Z"/><polygon points="236.48 574.32 236.48 578.95 236.48 598.66 706.78 598.66 706.78 578.95 706.78 574.32 706.78 571.2 236.48 571.2 236.48 574.32"/><polygon points="236.48 640.04 236.48 642.23 236.48 661.94 706.78 661.94 706.78 642.23 706.78 640.04 706.78 634.49 236.48 634.49 236.48 640.04"/></svg>