<svg id="Calque_1" data-name="Calque 1" xmlns="http://www.w3.org/2000/svg" viewBox="0 0 1920 694"><rect x="441.71" y="633.48" width="427.79" height="15.67"/><path d="M1504.07,73.76V467.2a42.38,42.38,0,0,0,36.19,41.92v.46H1407.14v-.46a42.38,42.38,0,0,0,36.19-41.92V73.76a42.38,42.38,0,0,0-36.19-41.92v-.46h133.12v.46A42.38,42.38,0,0,0,1504.07,73.76Z"/><path d="M694.67,442.43c3.7,11.3,6.51,22.86,9.21,34.44A42.42,42.42,0,0,0,739,509.12v.46H605.84v-.46c.64-.09,1.28-.2,1.91-.32,24-4.65,38.1-30,30.46-53.23l-109-331.88c-6.66-20.29-12.19-40.9-18-61.45a42.42,42.42,0,0,0-34.6-30.4v-.46h83.52Z"/><path d="M866.91,31.38v478.2H770v-.46a42.38,42.38,0,0,0,36.19-41.92V73.76A42.38,42.38,0,0,0,770,31.84v-.46Z"/><path d="M970.3,192.93V348h0A12.41,12.41,0,0,1,958,337.42a77.55,77.55,0,0,0-76.82-66.94A77.55,77.55,0,0,0,958,203.54a12.42,12.42,0,0,1,12.35-10.61Z"/><path d="M435.24,192.93V348h0a12.41,12.41,0,0,0,12.36-10.6,77.53,77.53,0,0,1,76.82-66.94,77.53,77.53,0,0,1-76.82-66.94,12.42,12.42,0,0,0-12.36-10.61Z"/><path d="M1049.14,380.34V509.58H919.9v-.65a129.27,129.27,0,0,0,115.73-116.22,13.6,13.6,0,0,1,13.51-12.37Z"/><path d="M1581.62,380.34V509.58h129.24v-.65a129.27,129.27,0,0,1-115.73-116.22,13.6,13.6,0,0,0-13.51-12.37Z"/><path d="M1201.65,31.38v478.2h-96.93v-.46a42.37,42.37,0,0,0,36.18-41.92V73.76a42.37,42.37,0,0,0-36.18-41.92v-.46Z"/><path d="M1371,380.34V509.58H1241.71v-.65a129.29,129.29,0,0,0,115.74-116.22,13.58,13.58,0,0,1,13.5-12.37Z"/><path d="M1049.14,160.62V31.38H919.9V32a129.27,129.27,0,0,1,115.73,116.22,13.6,13.6,0,0,0,13.51,12.37Z"/><path d="M441.71,380.34V509.58H312.46v-.65A129.27,129.27,0,0,0,428.2,392.71a13.59,13.59,0,0,1,13.51-12.37Z"/><path d="M441.71,160.62V31.38H312.46V32A129.27,129.27,0,0,1,428.2,148.25a13.59,13.59,0,0,0,13.51,12.37Z"/><path d="M1876.29,160.62V31.38H1747.05V32a129.27,129.27,0,0,1,115.73,116.22,13.59,13.59,0,0,0,13.51,12.37Z"/><path d="M1844.22,270.48A147,147,0,0,0,1729,214.91a91.76,91.76,0,0,1-3-183.48,147.33,147.33,0,0,0,3,294.62,91.76,91.76,0,0,1,2.63,183.49,147.32,147.32,0,0,0,112.64-239.06Z"/><path d="M265.29,507c-131,0-237.16-106.18-237.16-237.16S134.32,32.68,265.29,32.68c-88.87,0-160.9,106.18-160.9,237.15S176.42,507,265.29,507Z"/><path d="M1003.41,560.81V592h-8.86l-4.43-20.76h-21v77.93l14.68,3.32v8H936.42v-8l14.67-3.32V571.2H929.91L925.62,592h-8.86V560.81Z"/><path d="M1064,627.53l-2.35-13h-19V650.1h38.07l3.88-20.49h12.18v30.87h-85.13v-8l13-2.91V571.75l-13-2.91v-8h82.08v29.35h-11.35l-4-19.24h-35.72v33.22h19L1064,591h11.21v36.54Z"/><path d="M1155.54,569a23.56,23.56,0,0,0-10,2.22,18.83,18.83,0,0,0-7.68,6.36,50.68,50.68,0,0,0-6.3,13.43,59,59,0,0,0-2.56,18,77.52,77.52,0,0,0,2.08,18.48,46.9,46.9,0,0,0,5.81,14.33,17.39,17.39,0,0,0,8.17,7,30.19,30.19,0,0,0,11.76,2.15q23.27,0,27.27-23.4h11.77q-3.46,17.44-13.77,25.89t-28.31,8.44q-19.11,0-30.45-11.07a43.39,43.39,0,0,1-10.39-16.68,72.1,72.1,0,0,1,1-47.76,45.35,45.35,0,0,1,12.88-18.2q10.51-8.71,27.82-8.72a55.21,55.21,0,0,1,7.68.48,27,27,0,0,1,6.3,1.67,23.8,23.8,0,0,1,5.47,3.11,39.28,39.28,0,0,1,5.19,4.84l2.77-8.72h11.76v32.67h-12.59q-2-12.18-8.66-18.34T1155.54,569Z"/><path d="M1296,649.54l11.62,2.91v8h-41.25v-8l11.63-2.91V614.38h-42.77v35.16l11.63,2.91v8h-41.25v-8l11.62-2.91V571.75l-11.62-2.91v-8h41.25v8l-11.63,2.91v32.53H1278V571.75l-11.63-2.91v-8h41.25v8L1296,571.75Z"/><path d="M1390.58,662a34.72,34.72,0,0,1-13.36-2.28,26.22,26.22,0,0,1-9.76-7.27l-1.52,8H1354V627h12.6a43.15,43.15,0,0,0,2.14,11.77,22,22,0,0,0,4.64,7.89,16.64,16.64,0,0,0,6.85,4.36,28.38,28.38,0,0,0,8.93,1.31q7.89,0,12.6-3.25t4.7-10.31a14.28,14.28,0,0,0-1.79-7.34,18.59,18.59,0,0,0-5.13-5.47,45.28,45.28,0,0,0-7.89-4.5q-4.56-2.07-10.1-4.43a119.4,119.4,0,0,1-11.56-5.33,36.45,36.45,0,0,1-8.51-6.09,22.88,22.88,0,0,1-5.26-7.75,27.35,27.35,0,0,1-1.8-10.45q0-13.42,8.23-20.76t22.08-7.34q13.71,0,22.29,7.75l1.11-6.23h11.9v33.5h-12q0-13-4.85-19.24t-15-6.23q-15.65,0-15.64,14.81a15.88,15.88,0,0,0,1,6.09,11.53,11.53,0,0,0,3.46,4.5,32.17,32.17,0,0,0,6.37,4q3.94,1.93,9.76,4.57,8.71,4,14.74,7.47a48.24,48.24,0,0,1,9.69,7.06,23.31,23.31,0,0,1,5.33,7.61,23.91,23.91,0,0,1,1.66,9.14,27,27,0,0,1-2.63,12.18,24.92,24.92,0,0,1-7.27,8.79,31.7,31.7,0,0,1-10.87,5.26A49.55,49.55,0,0,1,1390.58,662Z"/><path d="M1520.83,560.81V592H1512l-4.43-20.76h-21v77.93l14.67,3.32v8h-47.34v-8l14.68-3.32V571.2h-21.18L1443,592h-8.86V560.81Z"/><path d="M1605,571.75l-11.63-2.91v-8h36.13v8l-11.63,2.91v55.09q0,17.31-10.24,26.23T1577.31,662q-18.55,0-28.38-9.14t-9.83-26.16v-55l-11.63-2.91v-8h41.25v8l-11.62,2.91v50.52q0,30,23.25,30,13,0,18.83-7t5.81-22.77Z"/><path d="M1689,560.81q20.63,0,32.12,11.63a44.38,44.38,0,0,1,10,16.34,61.2,61.2,0,0,1,3.46,20.76,64.74,64.74,0,0,1-3.6,21.87,46.84,46.84,0,0,1-10.24,17,34.87,34.87,0,0,1-13.84,9.14,56.13,56.13,0,0,1-19.1,2.91h-49.42v-8l11.63-2.91V571.75l-11.63-2.91v-8Zm-3.74,89.29a32,32,0,0,0,12.74-2.29,22.48,22.48,0,0,0,8.86-6.85,32.5,32.5,0,0,0,5.67-12,68.38,68.38,0,0,0,1.94-17.51q0-19.66-7.61-30a23.47,23.47,0,0,0-9.35-7.68,32.6,32.6,0,0,0-13.63-2.56H1668v78.9Z"/><path d="M1774.83,649.54l13,2.91v8h-44v-8l13-2.91V571.75l-13-2.91v-8h44v8l-13,2.91Z"/><path d="M1892.63,609.54a74,74,0,0,1-3.32,22.22,45,45,0,0,1-10.52,18.06A35.92,35.92,0,0,1,1864.6,659q-8.24,2.89-20,2.9t-20-2.9a35.69,35.69,0,0,1-13.91-8.73A44.06,44.06,0,0,1,1801,634a65.39,65.39,0,0,1-3.6-22.22,69.69,69.69,0,0,1,3.6-22.7,47.87,47.87,0,0,1,10.24-17.58,34.81,34.81,0,0,1,13.91-9.13q8.1-2.91,19.87-2.91a63.94,63.94,0,0,1,19.58,2.7,36,36,0,0,1,14.61,8.93,41.33,41.33,0,0,1,10.31,17.37A71.91,71.91,0,0,1,1892.63,609.54Zm-75.16-.42a81.71,81.71,0,0,0,2,19.11,43.11,43.11,0,0,0,5.46,13.56,22.31,22.31,0,0,0,8.24,7.75,25.65,25.65,0,0,0,12.25,2.63q13,0,19.66-9.13a35.28,35.28,0,0,0,5.53-12.67,91.71,91.71,0,0,0-.07-37.86,40.91,40.91,0,0,0-5.6-13.29,22.37,22.37,0,0,0-8.79-7.75,26.71,26.71,0,0,0-11.7-2.49,24.61,24.61,0,0,0-11.35,2.42,22.6,22.6,0,0,0-7.89,6.72Q1817.47,588.37,1817.47,609.12Z"/><rect x="441.71" y="581.95" width="427.79" height="15.67"/></svg>