<svg id="Calque_1" data-name="Calque 1" xmlns="http://www.w3.org/2000/svg" viewBox="0 0 760 760"><defs><style>.cls-1{fill:#052e38;}.cls-2{fill:#fff;}</style></defs><rect class="cls-1" width="760" height="760" rx="118"/><path class="cls-2" d="M284,497.86l-1.36.23v.32h95v-.32a30.29,30.29,0,0,1-25-23c-1.93-8.27-3.94-16.52-6.58-24.59L250,157H190.38v.32A30.3,30.3,0,0,1,215.08,179c4.14,14.67,8.09,29.39,12.84,43.87l77.84,237C311.22,476.46,301.18,494.54,284,497.86Z"/><path class="cls-2" d="M469,157h-69.2v.32a30.27,30.27,0,0,1,25.84,29.94v280.9a30.27,30.27,0,0,1-25.84,29.93v.32H469Z"/><path class="cls-2" d="M552.5,375.5a8.86,8.86,0,0,0,8.82,7.57h0V272.34h0a8.86,8.86,0,0,0-8.82,7.58,55.38,55.38,0,0,1-54.85,47.79A55.36,55.36,0,0,1,552.5,375.5Z"/><path class="cls-2" d="M151.21,279.92a8.85,8.85,0,0,0-8.81-7.58V383.07a8.85,8.85,0,0,0,8.81-7.57,55.36,55.36,0,0,1,54.85-47.79,55.38,55.38,0,0,1-54.85-47.79Z"/><path class="cls-2" d="M608,415a92.28,92.28,0,0,1-82.63,83v.46H617.6V406.14A9.71,9.71,0,0,0,608,415Z"/><path class="cls-2" d="M525.33,157v.46a92.3,92.3,0,0,1,82.63,83,9.7,9.7,0,0,0,9.64,8.83V157Z"/><polygon class="cls-2" points="281.35 540.77 281.35 544.05 281.35 558.05 615.38 558.05 615.38 544.05 615.38 540.77 615.38 538.55 281.35 538.55 281.35 540.77"/><polygon class="cls-2" points="281.35 587.44 281.35 589 281.35 603 615.38 603 615.38 589 615.38 587.44 615.38 583.5 281.35 583.5 281.35 587.44"/></svg>